# xmcd CD database file
#
# Track frame offsets:
#	150
#	18362
#	31800
#	59361
#	75279
#	100698
#	116792
#	142948
#	159730
#	174451
#	210006
#	234879
#	258351
#	278720
#
# Disc length: 4020 seconds
#
# Revision: 0
# Processed by: cddbd v1.5.2PL0 Copyright (c) Steve Scherf et al.
# Submitted via: CDex 1.70beta2
#
DISCID=a30fb20e
DTITLE=ASBJF (08) -  - ASB Jazzfest Queenstown - Celebrating 30 Years
DYEAR=2008
DGENRE=Jazz
TTITLE0=Subject2Change #2 - Subject 2change
TTITLE1=The Piper's Son - Fiona Pears
TTITLE2=Mr. Pickle - Mary Locket and Paul Van Ross
TTITLE3=Come Fly With Me - Tim Beveridge
TTITLE4=Her Smile - Michael Story
TTITLE5=Cool Hand Luke - Mike Frost and the icemen
TTITLE6=Subject2Change #3 0 Subject 2change
TTITLE7=Driving Wheel - King Leo and the Growling Dogs
TTITLE8=New Your, Ney York - Tim Beveridge
TTITLE9=Change For the Better - Oakley grenell
TTITLE10=Way We Livwe - Lewis McCallum feat. Tama Waipara
TTITLE11=Rainbow Bridge - Frank Gibson Jr. Quartet 
TTITLE12=It's You - Lewis McCallum feat. Cherie Mathieson
TTITLE13=Standing In This Fire - Anika Moa
EXTD=YEAR: 2008
EXTT0=
EXTT1=
EXTT2=
EXTT3=
EXTT4=
EXTT5=
EXTT6=
EXTT7=
EXTT8=
EXTT9=
EXTT10=
EXTT11=
EXTT12=
EXTT13=
PLAYORDER=
